<?xml version="1.0" encoding="UTF-8" standalone="no" ?>
<!DOCTYPE svg PUBLIC "-//W3C//DTD SVG 1.1//EN" "http://www.w3.org/Graphics/SVG/1.1/DTD/svg11.dtd">
<svg xmlns="http://www.w3.org/2000/svg" xmlns:xlink="http://www.w3.org/1999/xlink" version="1.1" width="1080" height="1080" viewBox="-4478.95 -4478.95 1080 1080" xml:space="preserve">
<desc>Created with Fabric.js 5.2.4</desc>
<defs>
</defs>
<rect x="0" y="0" width="100%" height="100%" fill="transparent"></rect>
<g transform="matrix(1 0 0 1 540 540)" id="06dec270-6e1f-488e-9ca9-b026327c5870"  >
<rect style="stroke: none; stroke-width: 1; stroke-dasharray: none; stroke-linecap: butt; stroke-dashoffset: 0; stroke-linejoin: miter; stroke-miterlimit: 4; fill: rgb(255,255,255); fill-rule: nonzero; opacity: 1; visibility: hidden;" vector-effect="non-scaling-stroke"  x="-540" y="-540" rx="0" ry="0" width="1080" height="1080" />
</g>
<g transform="matrix(Infinity NaN NaN Infinity 0 0)" id="d7c5114b-d9f7-42d3-add4-64a50b5ac2de"  >
</g>
<g transform="matrix(0.46 0 0 0.46 1051.22 1071.48)"  >
<path style="stroke: none; stroke-width: 1; stroke-dasharray: none; stroke-linecap: butt; stroke-dashoffset: 0; stroke-linejoin: miter; stroke-miterlimit: 4; fill: rgb(97,93,255); fill-rule: nonzero; opacity: 1;" vector-effect="non-scaling-stroke"  transform=" translate(-12.37, -13.21)" d="M 20.1369 26 C 22.8983 26 25.1842 23.7425 24.6732 21.0288 C 24.3528 19.3274 23.8679 17.6594 23.2235 16.0502 C 21.9602 12.8958 20.1087 10.0295 17.7745 7.61522 C 15.4403 5.2009 12.6692 3.28575 9.61949 1.97913 C 8.11383 1.33406 6.55481 0.843538 4.96489 0.512196 C 2.26154 -0.0511821 0 2.23858 0 5 L 0 21 C 0 23.7614 2.23858 26 5 26 L 20.1369 26 Z" stroke-linecap="round" />
</g>
<g transform="matrix(0.46 0 0 0.46 1038.89 1071.48)"  >
<path style="stroke: none; stroke-width: 1; stroke-dasharray: none; stroke-linecap: butt; stroke-dashoffset: 0; stroke-linejoin: miter; stroke-miterlimit: 4; fill: rgb(61,217,235); fill-rule: nonzero; opacity: 1;" vector-effect="non-scaling-stroke"  transform=" translate(-21.47, -13.21)" d="M 13.7013 26 C 10.9399 26 8.65395 23.7425 9.16502 21.0288 C 9.48544 19.3274 9.97031 17.6594 10.6147 16.0502 C 11.878 12.8958 13.7295 10.0295 16.0637 7.61522 C 18.3979 5.2009 21.169 3.28575 24.2187 1.97913 C 25.7244 1.33406 27.2834 0.843538 28.8733 0.512196 C 31.5767 -0.0511821 33.8382 2.23858 33.8382 5 L 33.8382 21 C 33.8382 23.7614 31.5996 26 28.8382 26 L 13.7013 26 Z" stroke-linecap="round" />
</g>
<g transform="matrix(0.46 0 0 0.43 1080 1087.36)" style="" id="03f60301-e734-49ac-9095-7d7ff7ff4456"  >
		<text xml:space="preserve" font-family="Lato" font-size="29" font-style="normal" font-weight="400" style="stroke: none; stroke-width: 1; stroke-dasharray: none; stroke-linecap: butt; stroke-dashoffset: 0; stroke-linejoin: miter; stroke-miterlimit: 4; fill: rgb(0,0,0); fill-rule: nonzero; opacity: 1; white-space: pre;" ><tspan x="-94.25" y="9.11" >Gibber Gapper</tspan></text>
</g>
<g transform="matrix(30.57 0 0 30.57 -5429.08 -3324.36)"  >
<g style="" vector-effect="non-scaling-stroke"   >
		<g transform="matrix(1 0 0 1 0 0)"  >
<rect style="stroke: none; stroke-width: 1; stroke-dasharray: none; stroke-linecap: butt; stroke-dashoffset: 0; stroke-linejoin: miter; stroke-miterlimit: 4; fill: rgb(255,255,255); fill-rule: nonzero; opacity: 1; visibility: hidden;" vector-effect="non-scaling-stroke"  x="-540" y="-540" rx="0" ry="0" width="1080" height="1080" />
</g>
		<g transform="matrix(1 0 0 1 -62.84 -34.22)"  >
<path style="stroke: none; stroke-width: 1; stroke-dasharray: none; stroke-linecap: butt; stroke-dashoffset: 0; stroke-linejoin: miter; stroke-miterlimit: 4; fill: rgb(97,93,255); fill-rule: nonzero; opacity: 1;" vector-effect="non-scaling-stroke"  transform=" translate(-12.37, -13.21)" d="M 20.1369 26 C 22.8983 26 25.1842 23.7425 24.6732 21.0288 C 24.3528 19.3274 23.8679 17.6594 23.2235 16.0502 C 21.9602 12.8958 20.1087 10.0295 17.7745 7.61522 C 15.4403 5.2009 12.6692 3.28575 9.61949 1.97913 C 8.11383 1.33406 6.55481 0.843538 4.96489 0.512196 C 2.26154 -0.0511821 0 2.23858 0 5 L 0 21 C 0 23.7614 2.23858 26 5 26 L 20.1369 26 Z" stroke-linecap="round" />
</g>
		<g transform="matrix(1 0 0 1 -89.46 -34.22)"  >
<path style="stroke: none; stroke-width: 1; stroke-dasharray: none; stroke-linecap: butt; stroke-dashoffset: 0; stroke-linejoin: miter; stroke-miterlimit: 4; fill: rgb(61,217,235); fill-rule: nonzero; opacity: 1;" vector-effect="non-scaling-stroke"  transform=" translate(-21.47, -13.21)" d="M 13.7013 26 C 10.9399 26 8.65395 23.7425 9.16502 21.0288 C 9.48544 19.3274 9.97031 17.6594 10.6147 16.0502 C 11.878 12.8958 13.7295 10.0295 16.0637 7.61522 C 18.3979 5.2009 21.169 3.28575 24.2187 1.97913 C 25.7244 1.33406 27.2834 0.843538 28.8733 0.512196 C 31.5767 -0.0511821 33.8382 2.23858 33.8382 5 L 33.8382 21 C 33.8382 23.7614 31.5996 26 28.8382 26 L 13.7013 26 Z" stroke-linecap="round" />
</g>
		<g transform="matrix(1 0 0 0.93 94.25 -8.45)" style=""  >
		<text xml:space="preserve" font-family="Lato" font-size="29" font-style="normal" font-weight="400" style="stroke: none; stroke-width: 1; stroke-dasharray: none; stroke-linecap: butt; stroke-dashoffset: 0; stroke-linejoin: miter; stroke-miterlimit: 4; fill: rgb(0,0,0); fill-rule: nonzero; opacity: 1; white-space: pre;" ><tspan x="-94.25" y="9.11" >Gibber Gapper</tspan></text>
</g>
</g>
</g>
</svg>